{
	"asset":{
		"generator":"Khronos glTF Blender I/O v4.1.63",
		"version":"2.0"
	},
	"scene":0,
	"scenes":[
		{
			"name":"Scene",
			"nodes":[
				2
			]
		}
	],
	"nodes":[
		{
			"mesh":0,
			"name":"Object_2"
		},
		{
			"children":[
				0
			],
			"name":"cow.obj.cleaner"
		},
		{
			"children":[
				1
			],
			"name":"Sketchfab_model",
			"rotation":[
				-0.70710688829422,
				0,
				0,
				0.7071066498756409
			]
		}
	],
	"materials":[
		{
			"name":"tornado_cow_material",
			"normalTexture":{
				"index":0,
				"scale":0.6996455788612366
			},
			"pbrMetallicRoughness":{
				"baseColorTexture":{
					"index":1
				},
				"metallicRoughnessTexture":{
					"index":2
				}
			}
		}
	],
	"meshes":[
		{
			"name":"Object_0",
			"primitives":[
				{
					"attributes":{
						"POSITION":0,
						"NORMAL":1,
						"TEXCOORD_0":2
					},
					"indices":3,
					"material":0
				}
			]
		}
	],
	"textures":[
		{
			"sampler":0,
			"source":0
		},
		{
			"sampler":0,
			"source":1
		},
		{
			"sampler":0,
			"source":2
		}
	],
	"images":[
		{
			"mimeType":"image/png",
			"name":"tornado_cow_material_normal",
			"uri":"tornado_cow_material_normal.png"
		},
		{
			"mimeType":"image/png",
			"name":"tornado_cow_material_baseColor",
			"uri":"tornado_cow_material_baseColor.png"
		},
		{
			"mimeType":"image/png",
			"name":"tornado_cow_material_metallicRoughness",
			"uri":"tornado_cow_material_metallicRoughness.png"
		}
	],
	"accessors":[
		{
			"bufferView":0,
			"componentType":5126,
			"count":2989,
			"max":[
				3.6977810859680176,
				16.680742263793945,
				14.22301197052002
			],
			"min":[
				-3.6977810859680176,
				-13.009381294250488,
				-0.08571500331163406
			],
			"type":"VEC3"
		},
		{
			"bufferView":1,
			"componentType":5126,
			"count":2989,
			"type":"VEC3"
		},
		{
			"bufferView":2,
			"componentType":5126,
			"count":2989,
			"type":"VEC2"
		},
		{
			"bufferView":3,
			"componentType":5123,
			"count":14694,
			"type":"SCALAR"
		}
	],
	"bufferViews":[
		{
			"buffer":0,
			"byteLength":35868,
			"byteOffset":0,
			"target":34962
		},
		{
			"buffer":0,
			"byteLength":35868,
			"byteOffset":35868,
			"target":34962
		},
		{
			"buffer":0,
			"byteLength":23912,
			"byteOffset":71736,
			"target":34962
		},
		{
			"buffer":0,
			"byteLength":29388,
			"byteOffset":95648,
			"target":34963
		}
	],
	"samplers":[
		{
			"magFilter":9729,
			"minFilter":9987
		}
	],
	"buffers":[
		{
			"byteLength":125036,
			"uri":"scene.bin"
		}
	]
}
