{
	"asset":{
		"generator":"Khronos glTF Blender I/O v4.1.63",
		"version":"2.0"
	},
	"extensionsUsed":[
		"KHR_materials_emissive_strength",
		"KHR_materials_specular",
		"KHR_materials_ior"
	],
	"scene":0,
	"scenes":[
		{
			"name":"Scene",
			"nodes":[
				0
			]
		}
	],
	"nodes":[
		{
			"mesh":0,
			"name":"column_low"
		}
	],
	"materials":[
		{
			"doubleSided":true,
			"name":"Material.003",
			"pbrMetallicRoughness":{
				"baseColorTexture":{
					"index":0
				}
			}
		},
		{
			"doubleSided":true,
			"emissiveFactor":[
				1,
				0.00291702919639647,
				0.010241641663014889
			],
			"extensions":{
				"KHR_materials_emissive_strength":{
					"emissiveStrength":7.799999713897705
				},
				"KHR_materials_specular":{
					"specularColorFactor":[
						2.0,
						2.0,
						2.0
					]
				},
				"KHR_materials_ior":{
					"ior":1.4500000476837158
				}
			},
			"name":"Material",
			"pbrMetallicRoughness":{
				"baseColorFactor":[
					0.8000000715255737,
					0,
					0.0007526230183430016,
					1
				],
				"metallicFactor":0,
				"roughnessFactor":0.5472440719604492
			}
		}
	],
	"meshes":[
		{
			"name":"Cube.001",
			"primitives":[
				{
					"attributes":{
						"POSITION":0,
						"NORMAL":1,
						"TEXCOORD_0":2
					},
					"indices":3,
					"material":0
				},
				{
					"attributes":{
						"POSITION":4,
						"NORMAL":5,
						"TEXCOORD_0":6
					},
					"indices":7,
					"material":1
				}
			]
		}
	],
	"textures":[
		{
			"sampler":0,
			"source":0
		}
	],
	"images":[
		{
			"mimeType":"image/png",
			"name":"RadioTower_Material_BaseColor",
			"uri":"RadioTower_Material_BaseColor.png"
		}
	],
	"accessors":[
		{
			"bufferView":0,
			"componentType":5126,
			"count":38577,
			"max":[
				30.363697052001953,
				128.5348358154297,
				30.363697052001953
			],
			"min":[
				-30.363697052001953,
				-0.04530227184295654,
				-30.363697052001953
			],
			"type":"VEC3"
		},
		{
			"bufferView":1,
			"componentType":5126,
			"count":38577,
			"type":"VEC3"
		},
		{
			"bufferView":2,
			"componentType":5126,
			"count":38577,
			"type":"VEC2"
		},
		{
			"bufferView":3,
			"componentType":5123,
			"count":47100,
			"type":"SCALAR"
		},
		{
			"bufferView":4,
			"componentType":5126,
			"count":104,
			"max":[
				29.20403480529785,
				129.4901885986328,
				29.20403480529785
			],
			"min":[
				-29.20403289794922,
				128.53822326660156,
				-29.20403289794922
			],
			"type":"VEC3"
		},
		{
			"bufferView":5,
			"componentType":5126,
			"count":104,
			"type":"VEC3"
		},
		{
			"bufferView":6,
			"componentType":5126,
			"count":104,
			"type":"VEC2"
		},
		{
			"bufferView":7,
			"componentType":5123,
			"count":264,
			"type":"SCALAR"
		}
	],
	"bufferViews":[
		{
			"buffer":0,
			"byteLength":462924,
			"byteOffset":0,
			"target":34962
		},
		{
			"buffer":0,
			"byteLength":462924,
			"byteOffset":462924,
			"target":34962
		},
		{
			"buffer":0,
			"byteLength":308616,
			"byteOffset":925848,
			"target":34962
		},
		{
			"buffer":0,
			"byteLength":94200,
			"byteOffset":1234464,
			"target":34963
		},
		{
			"buffer":0,
			"byteLength":1248,
			"byteOffset":1328664,
			"target":34962
		},
		{
			"buffer":0,
			"byteLength":1248,
			"byteOffset":1329912,
			"target":34962
		},
		{
			"buffer":0,
			"byteLength":832,
			"byteOffset":1331160,
			"target":34962
		},
		{
			"buffer":0,
			"byteLength":528,
			"byteOffset":1331992,
			"target":34963
		}
	],
	"samplers":[
		{
			"magFilter":9729,
			"minFilter":9987
		}
	],
	"buffers":[
		{
			"byteLength":1332520,
			"uri":"scene.bin"
		}
	]
}
