{
  "accessors": [
    {
      "bufferView": 2,
      "componentType": 5126,
      "count": 12025,
      "max": [
        48.66593551635742,
        39.226829528808594,
        48.5836067199707
      ],
      "min": [
        -48.66593551635742,
        -0.8851890563964844,
        -48.5836067199707
      ],
      "type": "VEC3"
    },
    {
      "bufferView": 2,
      "byteOffset": 144300,
      "componentType": 5126,
      "count": 12025,
      "max": [
        1.0,
        1.0,
        1.0
      ],
      "min": [
        -1.0,
        -1.0,
        -1.0
      ],
      "type": "VEC3"
    },
    {
      "bufferView": 3,
      "componentType": 5126,
      "count": 12025,
      "max": [
        1.0,
        0.9946171045303345,
        1.0,
        1.0
      ],
      "min": [
        -1.0,
        -0.9993098378181458,
        -1.0,
        1.0
      ],
      "type": "VEC4"
    },
    {
      "bufferView": 1,
      "componentType": 5126,
      "count": 12025,
      "max": [
        1.0,
        1.2109718322753906
      ],
      "min": [
        -1.0,
        -0.8535150289535522
      ],
      "type": "VEC2"
    },
    {
      "bufferView": 1,
      "byteOffset": 96200,
      "componentType": 5126,
      "count": 12025,
      "max": [
        1.0,
        1.2109718322753906
      ],
      "min": [
        -1.0,
        -0.8535150289535522
      ],
      "type": "VEC2"
    },
    {
      "bufferView": 1,
      "byteOffset": 192400,
      "componentType": 5126,
      "count": 12025,
      "max": [
        1.0,
        1.2109718322753906
      ],
      "min": [
        -1.0,
        -0.8535150289535522
      ],
      "type": "VEC2"
    },
    {
      "bufferView": 1,
      "byteOffset": 288600,
      "componentType": 5126,
      "count": 12025,
      "max": [
        1.0,
        1.2109718322753906
      ],
      "min": [
        -1.0,
        -0.8535150289535522
      ],
      "type": "VEC2"
    },
    {
      "bufferView": 1,
      "byteOffset": 384800,
      "componentType": 5126,
      "count": 12025,
      "max": [
        1.0,
        1.2109718322753906
      ],
      "min": [
        -1.0,
        -0.8535150289535522
      ],
      "type": "VEC2"
    },
    {
      "bufferView": 0,
      "componentType": 5125,
      "count": 48330,
      "type": "SCALAR"
    }
  ],
  "asset": {
    "extras": {
      "author": "fudailshajahan (https://sketchfab.com/fudailshajahan)",
      "license": "CC-BY-4.0 (http://creativecommons.org/licenses/by/4.0/)",
      "source": "https://sketchfab.com/3d-models/retro-ufo-a198a969caed46f4b58ff30167339650",
      "title": "Retro UFO"
    },
    "generator": "Sketchfab-12.66.0",
    "version": "2.0"
  },
  "bufferViews": [
    {
      "buffer": 0,
      "byteLength": 193320,
      "name": "floatBufferViews",
      "target": 34963
    },
    {
      "buffer": 0,
      "byteLength": 481000,
      "byteOffset": 193320,
      "byteStride": 8,
      "name": "floatBufferViews",
      "target": 34962
    },
    {
      "buffer": 0,
      "byteLength": 288600,
      "byteOffset": 674320,
      "byteStride": 12,
      "name": "floatBufferViews",
      "target": 34962
    },
    {
      "buffer": 0,
      "byteLength": 192400,
      "byteOffset": 962920,
      "byteStride": 16,
      "name": "floatBufferViews",
      "target": 34962
    }
  ],
  "buffers": [
    {
      "byteLength": 1155320,
      "uri": "scene.bin"
    }
  ],
  "extensionsRequired": [
    "KHR_materials_pbrSpecularGlossiness"
  ],
  "extensionsUsed": [
    "KHR_materials_pbrSpecularGlossiness"
  ],
  "images": [
    {
      "uri": "textures/material_0_diffuse.png"
    },
    {
      "uri": "textures/material_0_specularGlossiness.png"
    },
    {
      "uri": "textures/material_0_emissive.png"
    },
    {
      "uri": "textures/material_0_normal.png"
    }
  ],
  "materials": [
    {
      "doubleSided": true,
      "emissiveFactor": [
        1.0,
        1.0,
        1.0
      ],
      "emissiveTexture": {
        "index": 2
      },
      "extensions": {
        "KHR_materials_pbrSpecularGlossiness": {
          "diffuseFactor": [
            1.0,
            1.0,
            1.0,
            1.0
          ],
          "diffuseTexture": {
            "index": 0
          },
          "glossinessFactor": 1.0,
          "specularFactor": [
            1.0,
            1.0,
            1.0
          ],
          "specularGlossinessTexture": {
            "index": 1
          }
        }
      },
      "name": "material_0",
      "normalTexture": {
        "index": 3
      }
    }
  ],
  "meshes": [
    {
      "name": "Object_0",
      "primitives": [
        {
          "attributes": {
            "NORMAL": 1,
            "POSITION": 0,
            "TANGENT": 2,
            "TEXCOORD_0": 3,
            "TEXCOORD_1": 4,
            "TEXCOORD_2": 5,
            "TEXCOORD_3": 6,
            "TEXCOORD_4": 7
          },
          "indices": 8,
          "material": 0,
          "mode": 4
        }
      ]
    }
  ],
  "nodes": [
    {
      "children": [
        1
      ],
      "matrix": [
        1.0,
        0.0,
        0.0,
        0.0,
        0.0,
        2.220446049250313e-16,
        -1.0,
        0.0,
        0.0,
        1.0,
        2.220446049250313e-16,
        0.0,
        0.0,
        0.0,
        0.0,
        1.0
      ],
      "name": "Sketchfab_model"
    },
    {
      "children": [
        2
      ],
      "name": "root"
    },
    {
      "children": [
        3
      ],
      "matrix": [
        1.0,
        0.0,
        0.0,
        0.0,
        0.0,
        2.220446049250313e-16,
        1.0,
        0.0,
        0.0,
        -1.0,
        2.220446049250313e-16,
        0.0,
        0.0,
        0.0,
        0.0,
        1.0
      ],
      "name": "GLTF_SceneRootNode"
    },
    {
      "children": [
        4
      ],
      "matrix": [
        0.009999999776482582,
        0.0,
        0.0,
        0.0,
        0.0,
        0.009999999776482582,
        0.0,
        0.0,
        0.0,
        0.0,
        0.009999999776482582,
        0.0,
        0.0,
        0.0,
        0.0,
        1.0
      ],
      "name": "RootNode.0_0"
    },
    {
      "children": [
        5
      ],
      "name": "ufo.1_1"
    },
    {
      "mesh": 0,
      "name": "Object_5"
    }
  ],
  "samplers": [
    {
      "magFilter": 9729,
      "minFilter": 9987,
      "wrapS": 10497,
      "wrapT": 10497
    }
  ],
  "scene": 0,
  "scenes": [
    {
      "name": "Sketchfab_Scene",
      "nodes": [
        0
      ]
    }
  ],
  "textures": [
    {
      "sampler": 0,
      "source": 0
    },
    {
      "sampler": 0,
      "source": 1
    },
    {
      "sampler": 0,
      "source": 2
    },
    {
      "sampler": 0,
      "source": 3
    }
  ]
}
