{
	"asset":{
		"generator":"Khronos glTF Blender I/O v4.1.63",
		"version":"2.0"
	},
	"extensionsUsed":[
		"KHR_materials_specular",
		"KHR_materials_ior"
	],
	"scene":0,
	"scenes":[
		{
			"name":"Scene",
			"nodes":[
				4
			]
		}
	],
	"nodes":[
		{
			"mesh":0,
			"name":"RadarTower_RadarTower_0"
		},
		{
			"children":[
				0
			],
			"name":"RadarTower",
			"translation":[
				12.996458053588867,
				77.6976318359375,
				0.382568359375
			]
		},
		{
			"children":[
				1
			],
			"name":"RootNode"
		},
		{
			"children":[
				2
			],
			"name":"RadarTower_FBX.FBX",
			"rotation":[
				-1,
				0,
				0,
				5.551115123125783e-15
			],
			"scale":[
				0.009999999776482582,
				0.009999999776482582,
				0.009999999776482582
			]
		},
		{
			"children":[
				3
			],
			"name":"Sketchfab_model",
			"rotation":[
				0.70710688829422,
				0,
				0,
				0.7071066498756409
			],
			"translation":[
				-0.13137543201446533,
				0,
				0.7936773300170898
			]
		}
	],
	"materials":[
		{
			"doubleSided":true,
			"extensions":{
				"KHR_materials_specular":{
					"specularColorFactor":[
						0.4495251774787903,
						0.4495251774787903,
						0.4495251774787903
					],
					"specularColorTexture":{
						"index":0
					}
				},
				"KHR_materials_ior":{
					"ior":1000
				}
			},
			"name":"RadarTower",
			"pbrMetallicRoughness":{
				"baseColorTexture":{
					"index":1
				},
				"metallicFactor":0,
				"metallicRoughnessTexture":{
					"index":2
				}
			}
		}
	],
	"meshes":[
		{
			"name":"RadarTower_RadarTower_0",
			"primitives":[
				{
					"attributes":{
						"POSITION":0,
						"NORMAL":1,
						"TEXCOORD_0":2,
						"TEXCOORD_1":3,
						"TEXCOORD_2":4,
						"TEXCOORD_3":5,
						"TEXCOORD_4":6,
						"TEXCOORD_5":7,
						"TEXCOORD_6":8,
						"TEXCOORD_7":9
					},
					"indices":10,
					"material":0
				}
			]
		}
	],
	"textures":[
		{
			"sampler":0,
			"source":0
		},
		{
			"sampler":0,
			"source":1
		},
		{
			"sampler":0,
			"source":2
		}
	],
	"images":[
		{
			"mimeType":"image/png",
			"name":"RadarTower_specularGlossiness",
			"uri":"RadarTower_specularGlossiness.png"
		},
		{
			"mimeType":"image/jpeg",
			"name":"RadarTower_diffuse",
			"uri":"RadarTower_diffuse.jpg"
		},
		{
			"mimeType":"image/png",
			"name":"RadarTower_specularGlossiness",
			"uri":"RadarTower_specularGlossiness-1.png"
		}
	],
	"accessors":[
		{
			"bufferView":0,
			"componentType":5126,
			"count":183904,
			"max":[
				456.45849609375,
				456.45849609375,
				2158.27783203125
			],
			"min":[
				-456.45849609375,
				-456.45849609375,
				-0.3825255036354065
			],
			"type":"VEC3"
		},
		{
			"bufferView":1,
			"componentType":5126,
			"count":183904,
			"type":"VEC3"
		},
		{
			"bufferView":2,
			"componentType":5126,
			"count":183904,
			"type":"VEC2"
		},
		{
			"bufferView":3,
			"componentType":5126,
			"count":183904,
			"type":"VEC2"
		},
		{
			"bufferView":4,
			"componentType":5126,
			"count":183904,
			"type":"VEC2"
		},
		{
			"bufferView":5,
			"componentType":5126,
			"count":183904,
			"type":"VEC2"
		},
		{
			"bufferView":6,
			"componentType":5126,
			"count":183904,
			"type":"VEC2"
		},
		{
			"bufferView":7,
			"componentType":5126,
			"count":183904,
			"type":"VEC2"
		},
		{
			"bufferView":8,
			"componentType":5126,
			"count":183904,
			"type":"VEC2"
		},
		{
			"bufferView":9,
			"componentType":5126,
			"count":183904,
			"type":"VEC2"
		},
		{
			"bufferView":10,
			"componentType":5125,
			"count":426186,
			"type":"SCALAR"
		}
	],
	"bufferViews":[
		{
			"buffer":0,
			"byteLength":2206848,
			"byteOffset":0,
			"target":34962
		},
		{
			"buffer":0,
			"byteLength":2206848,
			"byteOffset":2206848,
			"target":34962
		},
		{
			"buffer":0,
			"byteLength":1471232,
			"byteOffset":4413696,
			"target":34962
		},
		{
			"buffer":0,
			"byteLength":1471232,
			"byteOffset":5884928,
			"target":34962
		},
		{
			"buffer":0,
			"byteLength":1471232,
			"byteOffset":7356160,
			"target":34962
		},
		{
			"buffer":0,
			"byteLength":1471232,
			"byteOffset":8827392,
			"target":34962
		},
		{
			"buffer":0,
			"byteLength":1471232,
			"byteOffset":10298624,
			"target":34962
		},
		{
			"buffer":0,
			"byteLength":1471232,
			"byteOffset":11769856,
			"target":34962
		},
		{
			"buffer":0,
			"byteLength":1471232,
			"byteOffset":13241088,
			"target":34962
		},
		{
			"buffer":0,
			"byteLength":1471232,
			"byteOffset":14712320,
			"target":34962
		},
		{
			"buffer":0,
			"byteLength":1704744,
			"byteOffset":16183552,
			"target":34963
		}
	],
	"samplers":[
		{
			"magFilter":9729,
			"minFilter":9987
		}
	],
	"buffers":[
		{
			"byteLength":17888296,
			"uri":"scene.bin"
		}
	]
}
