{
	"asset":{
		"generator":"Khronos glTF Blender I/O v4.1.63",
		"version":"2.0"
	},
	"extensionsUsed":[
		"KHR_materials_specular",
		"KHR_materials_ior"
	],
	"scene":0,
	"scenes":[
		{
			"name":"Scene",
			"nodes":[
				5,
				6,
				7
			]
		}
	],
	"nodes":[
		{
			"mesh":0,
			"name":"Object_5",
			"translation":[
				0,
				1.52587890625e-05,
				0
			]
		},
		{
			"children":[
				0
			],
			"name":"ufo.1_1",
			"translation":[
				0,
				1.52587890625e-05,
				0
			]
		},
		{
			"children":[
				1
			],
			"name":"RootNode.0_0",
			"scale":[
				0.009999999776482582,
				0.009999999776482582,
				0.009999999776482582
			]
		},
		{
			"children":[
				2
			],
			"name":"GLTF_SceneRootNode",
			"rotation":[
				0.70710688829422,
				0,
				0,
				0.7071066498756409
			]
		},
		{
			"children":[
				3
			],
			"name":"root"
		},
		{
			"children":[
				4
			],
			"name":"Sketchfab_model",
			"rotation":[
				-0.70710688829422,
				0,
				0,
				0.7071066498756409
			],
			"translation":[
				0,
				2.3363418579101562,
				0
			]
		},
		{
			"mesh":1,
			"name":"\u0421\u044e\u0437\u0430\u043d\u043d\u0430",
			"translation":[
				3.459073066711426,
				0,
				0
			]
		},
		{
			"mesh":2,
			"name":"\u0426\u0438\u043b\u0438\u043d\u0434\u0440",
			"rotation":[
				-0.10440291464328766,
				0.0045002903789281845,
				-0.006513417232781649,
				0.9945035576820374
			],
			"scale":[
				0.5375118851661682,
				0.2909386456012726,
				0.5342204570770264
			],
			"translation":[
				3.455059051513672,
				1.1166760921478271,
				-0.3118310272693634
			]
		}
	],
	"materials":[
		{
			"doubleSided":true,
			"emissiveFactor":[
				1,
				1,
				1
			],
			"emissiveTexture":{
				"index":0
			},
			"extensions":{
				"KHR_materials_specular":{
					"specularColorTexture":{
						"index":1
					}
				},
				"KHR_materials_ior":{
					"ior":1000
				}
			},
			"name":"material_0",
			"normalTexture":{
				"index":2
			},
			"pbrMetallicRoughness":{
				"baseColorTexture":{
					"index":3
				},
				"metallicFactor":0,
				"metallicRoughnessTexture":{
					"index":4
				}
			}
		},
		{
			"doubleSided":true,
			"name":"\u041c\u0430\u0442\u0435\u0440\u0438\u0430\u043b",
			"pbrMetallicRoughness":{
				"baseColorFactor":[
					0.242904394865036,
					0.4276275038719177,
					0.8011502027511597,
					1
				],
				"roughnessFactor":0.6743119359016418
			}
		},
		{
			"doubleSided":true,
			"name":"\u041c\u0430\u0442\u0435\u0440\u0438\u0430\u043b.001",
			"pbrMetallicRoughness":{
				"baseColorFactor":[
					0.800000011920929,
					0.800000011920929,
					0.800000011920929,
					1
				],
				"metallicFactor":0
			}
		}
	],
	"meshes":[
		{
			"name":"Object_0",
			"primitives":[
				{
					"attributes":{
						"POSITION":0,
						"NORMAL":1,
						"TEXCOORD_0":2,
						"TEXCOORD_1":3,
						"TEXCOORD_2":4,
						"TEXCOORD_3":5,
						"TEXCOORD_4":6
					},
					"indices":7,
					"material":0
				}
			]
		},
		{
			"name":"\u0421\u044e\u0437\u0430\u043d\u043d\u0430",
			"primitives":[
				{
					"attributes":{
						"POSITION":8,
						"NORMAL":9,
						"TEXCOORD_0":10
					},
					"indices":11,
					"material":1
				}
			]
		},
		{
			"name":"\u0426\u0438\u043b\u0438\u043d\u0434\u0440",
			"primitives":[
				{
					"attributes":{
						"POSITION":12,
						"NORMAL":13,
						"TEXCOORD_0":14
					},
					"indices":15,
					"material":2
				}
			]
		}
	],
	"textures":[
		{
			"sampler":0,
			"source":0
		},
		{
			"sampler":0,
			"source":1
		},
		{
			"sampler":0,
			"source":2
		},
		{
			"sampler":0,
			"source":3
		},
		{
			"sampler":0,
			"source":4
		}
	],
	"images":[
		{
			"mimeType":"image/png",
			"name":"material_0_emissive",
			"uri":"material_0_emissive.png"
		},
		{
			"mimeType":"image/png",
			"name":"material_0_specularGlossiness",
			"uri":"material_0_specularGlossiness.png"
		},
		{
			"mimeType":"image/png",
			"name":"material_0_normal",
			"uri":"material_0_normal.png"
		},
		{
			"mimeType":"image/png",
			"name":"material_0_diffuse",
			"uri":"material_0_diffuse.png"
		},
		{
			"mimeType":"image/png",
			"name":"material_0_specularGlossiness",
			"uri":"material_0_specularGlossiness-1.png"
		}
	],
	"accessors":[
		{
			"bufferView":0,
			"componentType":5126,
			"count":12397,
			"max":[
				48.66593551635742,
				24.422103881835938,
				48.5836067199707
			],
			"min":[
				-48.66593551635742,
				-15.689926147460938,
				-48.5836067199707
			],
			"type":"VEC3"
		},
		{
			"bufferView":1,
			"componentType":5126,
			"count":12397,
			"type":"VEC3"
		},
		{
			"bufferView":2,
			"componentType":5126,
			"count":12397,
			"type":"VEC2"
		},
		{
			"bufferView":3,
			"componentType":5126,
			"count":12397,
			"type":"VEC2"
		},
		{
			"bufferView":4,
			"componentType":5126,
			"count":12397,
			"type":"VEC2"
		},
		{
			"bufferView":5,
			"componentType":5126,
			"count":12397,
			"type":"VEC2"
		},
		{
			"bufferView":6,
			"componentType":5126,
			"count":12397,
			"type":"VEC2"
		},
		{
			"bufferView":7,
			"componentType":5123,
			"count":48330,
			"type":"SCALAR"
		},
		{
			"bufferView":8,
			"componentType":5126,
			"count":1966,
			"max":[
				1.3671875,
				0.984375,
				0.8515625
			],
			"min":[
				-1.3671875,
				-0.984375,
				-0.8515625
			],
			"type":"VEC3"
		},
		{
			"bufferView":9,
			"componentType":5126,
			"count":1966,
			"type":"VEC3"
		},
		{
			"bufferView":10,
			"componentType":5126,
			"count":1966,
			"type":"VEC2"
		},
		{
			"bufferView":11,
			"componentType":5123,
			"count":2904,
			"type":"SCALAR"
		},
		{
			"bufferView":12,
			"componentType":5126,
			"count":192,
			"max":[
				1,
				1,
				1
			],
			"min":[
				-1,
				-1,
				-1
			],
			"type":"VEC3"
		},
		{
			"bufferView":13,
			"componentType":5126,
			"count":192,
			"type":"VEC3"
		},
		{
			"bufferView":14,
			"componentType":5126,
			"count":192,
			"type":"VEC2"
		},
		{
			"bufferView":15,
			"componentType":5123,
			"count":372,
			"type":"SCALAR"
		}
	],
	"bufferViews":[
		{
			"buffer":0,
			"byteLength":148764,
			"byteOffset":0,
			"target":34962
		},
		{
			"buffer":0,
			"byteLength":148764,
			"byteOffset":148764,
			"target":34962
		},
		{
			"buffer":0,
			"byteLength":99176,
			"byteOffset":297528,
			"target":34962
		},
		{
			"buffer":0,
			"byteLength":99176,
			"byteOffset":396704,
			"target":34962
		},
		{
			"buffer":0,
			"byteLength":99176,
			"byteOffset":495880,
			"target":34962
		},
		{
			"buffer":0,
			"byteLength":99176,
			"byteOffset":595056,
			"target":34962
		},
		{
			"buffer":0,
			"byteLength":99176,
			"byteOffset":694232,
			"target":34962
		},
		{
			"buffer":0,
			"byteLength":96660,
			"byteOffset":793408,
			"target":34963
		},
		{
			"buffer":0,
			"byteLength":23592,
			"byteOffset":890068,
			"target":34962
		},
		{
			"buffer":0,
			"byteLength":23592,
			"byteOffset":913660,
			"target":34962
		},
		{
			"buffer":0,
			"byteLength":15728,
			"byteOffset":937252,
			"target":34962
		},
		{
			"buffer":0,
			"byteLength":5808,
			"byteOffset":952980,
			"target":34963
		},
		{
			"buffer":0,
			"byteLength":2304,
			"byteOffset":958788,
			"target":34962
		},
		{
			"buffer":0,
			"byteLength":2304,
			"byteOffset":961092,
			"target":34962
		},
		{
			"buffer":0,
			"byteLength":1536,
			"byteOffset":963396,
			"target":34962
		},
		{
			"buffer":0,
			"byteLength":744,
			"byteOffset":964932,
			"target":34963
		}
	],
	"samplers":[
		{
			"magFilter":9729,
			"minFilter":9987
		}
	],
	"buffers":[
		{
			"byteLength":965676,
			"uri":"scene.bin"
		}
	]
}
